<?xml version="1.0" encoding="UTF-8"?>
<!DOCTYPE svg PUBLIC "-//W3C//DTD SVG 1.1//EN" "http://www.w3.org/Graphics/SVG/1.1/DTD/svg11.dtd">
<!-- Creator: CorelDRAW -->
<svg xmlns="http://www.w3.org/2000/svg" xml:space="preserve" width="210mm" height="297mm" version="1.1" style="shape-rendering:geometricPrecision; text-rendering:geometricPrecision; image-rendering:optimizeQuality; fill-rule:evenodd; clip-rule:evenodd"
viewBox="0 0 21000 29700"
 xmlns:xlink="http://www.w3.org/1999/xlink"
 xmlns:xodm="http://www.corel.com/coreldraw/odm/2003">
 <defs>
  <style type="text/css">
   <![CDATA[
    .fil0 {fill:#E6E7E8}
   ]]>
  </style>
 </defs>
 <g id="Capa_x0020_1">
  <metadata id="CorelCorpID_0Corel-Layer"/>
  <path class="fil0" d="M10324.76 14761.8c2.49,-2.49 5.87,-3.89 9.38,-3.89 3.51,0 6.89,1.4 9.37,3.89l149.36 149.4 149.37 -149.4c2.48,-2.49 5.86,-3.89 9.37,-3.89 7.32,0 13.25,5.93 13.25,13.25 0,3.51 -1.4,6.89 -3.88,9.37l-158.74 158.74c-2.48,2.48 -5.86,3.88 -9.37,3.88 -3.5,0 -6.88,-1.4 -9.36,-3.89l-158.74 -158.74c-2.48,-2.47 -3.88,-5.85 -3.88,-9.36 0,-3.51 1.4,-6.89 3.89,-9.37l-0.02 0.01z"/>
 </g>
</svg>
