<?xml version="1.0" encoding="UTF-8"?>
<!DOCTYPE svg PUBLIC "-//W3C//DTD SVG 1.1//EN" "http://www.w3.org/Graphics/SVG/1.1/DTD/svg11.dtd">
<!-- Creator: CorelDRAW -->
<svg xmlns="http://www.w3.org/2000/svg" xml:space="preserve" width="210mm" height="297mm" version="1.1" style="shape-rendering:geometricPrecision; text-rendering:geometricPrecision; image-rendering:optimizeQuality; fill-rule:evenodd; clip-rule:evenodd"
viewBox="0 0 21000 29700"
 xmlns:xlink="http://www.w3.org/1999/xlink"
 xmlns:xodm="http://www.corel.com/coreldraw/odm/2003">
 <defs>
  <style type="text/css">
   <![CDATA[
    .fil0 {fill:#E6E7E8}
   ]]>
  </style>
 </defs>
 <g id="Capa_x0020_1">
  <metadata id="CorelCorpID_0Corel-Layer"/>
  <path class="fil0" d="M1887.57 10308.74c127.45,-127.45 300.45,-199.11 480.1,-199.11 179.66,0 352.66,71.66 479.59,199.11l7645.33 7647.37 7645.83 -7647.37c126.94,-127.45 299.94,-199.11 479.6,-199.11 374.66,0 678.18,303.52 678.18,678.19 0,179.65 -71.66,352.65 -198.59,479.59l-8125.43 8125.43c-126.94,126.93 -299.94,198.59 -479.59,198.59 -179.14,0 -352.15,-71.66 -479.08,-199.11l-8125.43 -8125.42c-126.94,-126.43 -198.59,-299.43 -198.59,-479.08 0,-179.66 71.65,-352.66 199.1,-479.6l-1.02 0.52z"/>
 </g>
</svg>
