<?xml version="1.0" encoding="UTF-8"?>
<!DOCTYPE svg PUBLIC "-//W3C//DTD SVG 1.1//EN" "http://www.w3.org/Graphics/SVG/1.1/DTD/svg11.dtd">
<!-- Creator: CorelDRAW -->
<svg xmlns="http://www.w3.org/2000/svg" xml:space="preserve" width="2.54mm" height="2.54mm" version="1.1" style="shape-rendering:geometricPrecision; text-rendering:geometricPrecision; image-rendering:optimizeQuality; fill-rule:evenodd; clip-rule:evenodd"
viewBox="0 0 254 254"
 xmlns:xlink="http://www.w3.org/1999/xlink"
 xmlns:xodm="http://www.corel.com/coreldraw/odm/2003">
 <defs>
  <style type="text/css">
   <![CDATA[
    .fil0 {fill:#FEFEFE}
   ]]>
  </style>
 </defs>
 <g id="Capa_x0020_1">
  <metadata id="CorelCorpID_0Corel-Layer"/>
  <path class="fil0" d="M19.42 70.22c1.59,-1.59 3.75,-2.49 6,-2.49 2.25,0 4.41,0.9 6,2.49l95.58 95.61 95.58 -95.61c1.59,-1.59 3.75,-2.49 6,-2.49 4.68,0 8.48,3.79 8.48,8.48 0,2.24 -0.9,4.41 -2.48,5.99l-101.59 101.59c-1.58,1.58 -3.75,2.48 -5.99,2.48 -2.24,0 -4.41,-0.9 -5.99,-2.49l-101.59 -101.58c-1.58,-1.58 -2.48,-3.75 -2.48,-5.99 0,-2.25 0.9,-4.41 2.49,-6l-0.01 0.01z"/>
 </g>
</svg>
